<?xml version="1.0" encoding="UTF-8"?>
<svg id="Layer_1" xmlns="http://www.w3.org/2000/svg" xmlns:xlink="http://www.w3.org/1999/xlink" viewBox="0 0 1024 1024">
  <defs>
    <style>
      .cls-1 {
        fill: #fff;
      }

      .cls-2 {
        fill: url(#radial-gradient);
        filter: url(#drop-shadow-1);
      }
    </style>
    <radialGradient id="radial-gradient" cx="514.24" cy="528.39" fx="514.24" fy="528.39" r="459.1" gradientUnits="userSpaceOnUse">
      <stop offset="0" stop-color="#ce4956"/>
      <stop offset=".15" stop-color="#cd404e"/>
      <stop offset=".68" stop-color="#cc2836"/>
      <stop offset="1" stop-color="#cc202e"/>
    </radialGradient>
    <filter id="drop-shadow-1" filterUnits="userSpaceOnUse">
      <feOffset dx="7.07" dy="7.07"/>
      <feGaussianBlur result="blur" stdDeviation="11.12"/>
      <feFlood flood-color="#000" flood-opacity=".12"/>
      <feComposite in2="blur" operator="in"/>
      <feComposite in="SourceGraphic"/>
    </filter>
  </defs>
  <circle class="cls-2" cx="514.24" cy="528.39" r="459.1"/>
  <g>
    <path class="cls-1" d="M278.52,494.29c-15.36,50.72-10.43,108.1,15.07,157.37,13.33,24.35,31.3,46.37,53.62,63.76,22.32,17.39,48.4,29.27,75.93,35.94,55.07,12.46,114.48,1.45,160.27-29.56,46.08-31.01,76.8-80.28,86.07-132.16,9.57-52.17-2.9-105.78-31.59-147.52-28.4-41.73-71.87-71.59-119.98-82.02-47.24-10.43-98.54-5.51-143.17,18.26-45.21,22.9-80.86,65.21-96.22,115.93ZM224.32,481.25c12.75-66.08,53.04-128.1,111-167.52,29.27-19.13,62.31-33.04,97.38-39.42,35.07-6.38,71.3-4.64,105.78,4.06,68.98,17.68,129.55,64.05,163.46,125.2,34.2,60.86,41.44,134.77,22.32,199.4-18.55,64.92-64.05,119.99-120.86,151-56.51,31.88-124.91,40.57-186.35,24.34-61.44-15.94-117.67-53.62-153.89-107.52-37.39-53.33-52.17-123.46-38.84-189.54Z"/>
    <path class="cls-1" d="M489.23,548.2c-4.93,11.01-3.48,24.63,3.19,38.26,6.38,13.33,16.81,26.08,28.11,37.39,22.61,23.18,50.72,41.44,78.83,58.54,28.4,16.81,59.41,30.14,90.71,37.1,30.14,7.24,65.5,6.09,77.09-10.72,5.79-8.11,7.24-22.03,2.61-36.81-4.35-14.78-12.18-29.56-22.32-43.18-20.29-27.53-47.53-50.14-77.38-68.69-30.14-17.68-63.18-31.3-97.67-35.65-17.1-2.03-34.2-2.03-49.56,1.74-15.65,3.19-28.4,11.3-33.62,22.03ZM462.56,532.84c13.62-20.87,36.23-29.85,55.65-32.17,20-2.61,39.42-.58,57.68,3.19,37.09,7.54,71.29,21.74,103.76,39.71,32.46,17.97,62.89,39.71,88.68,68.11,12.75,14.2,24.63,29.85,32.75,48.98,8.12,18.55,12.46,44.05.58,67.82-12.75,23.48-37.1,35.36-57.96,39.7-21.45,4.64-42.02,4.64-62.02,2.03-39.99-5.22-76.8-19.71-110.71-38.26-33.91-19.13-63.76-45.5-86.95-77.96-11.3-16.52-21.16-34.49-26.95-54.78-6.09-19.71-7.54-45.21,5.51-66.37Z"/>
    <path class="cls-1" d="M474.14,583.89c23.21,0,42.02-18.81,42.02-42.02s-18.81-42.02-42.02-42.02-42.02,18.81-42.02,42.02,18.81,42.02,42.02,42.02Z"/>
  </g>
</svg>