<?xml version="1.0" encoding="UTF-8"?>
<svg id="Layer_1" data-name="Layer 1" xmlns="http://www.w3.org/2000/svg" xmlns:xlink="http://www.w3.org/1999/xlink" viewBox="0 0 121 121">
  <defs>
    <style>
      .cls-1 {
        fill: url(#linear-gradient);
      }

      .cls-1, .cls-2 {
        stroke-width: 0px;
      }

      .cls-2 {
        fill: #23202a;
      }
    </style>
    <linearGradient id="linear-gradient" x1="35.17" y1="68.99" x2="86.38" y2="68.99" gradientUnits="userSpaceOnUse">
      <stop offset="0" stop-color="#cc202e"/>
      <stop offset="1" stop-color="#741213"/>
    </linearGradient>
  </defs>
  <path class="cls-2" d="M91.8,39.79l3.24-3.24c1.6-1.6,1.6-4.19,0-5.79l-.25-.25c-1.6-1.6-4.19-1.6-5.79,0l-3.66,3.66c-5.99-4.25-12.99-6.86-20.3-7.6v-8.75h4.44c2.26,0,4.09-1.83,4.09-4.09v-.35c0-2.26-1.83-4.09-4.09-4.09h-17.42c-2.26,0-4.09,1.83-4.09,4.09v.35c0,2.26,1.83,4.09,4.09,4.09h4.44v8.75c-7.31.73-14.3,3.35-20.3,7.6l-3.66-3.66c-1.6-1.6-4.19-1.6-5.79,0l-.25.25c-1.6,1.6-1.6,4.19,0,5.79l3.24,3.24c-16.28,17.24-15.4,44.48,2.05,60.63,16.59,15.35,42.66,15,58.81-.81,16.72-16.37,17.12-42.96,1.19-59.82h0ZM60.78,103.18c-19.3,0-34.85-16.01-34.12-35.47.67-17.69,15.09-32.11,32.79-32.79,19.46-.74,35.47,14.82,35.47,34.12-.02,18.85-15.29,34.12-34.14,34.14Z"/>
  <path class="cls-1" d="M60.78,43.38c-14.14,0-25.61,11.46-25.61,25.61s11.46,25.61,25.61,25.61,25.61-11.46,25.61-25.61-11.46-25.61-25.61-25.61ZM72.69,70.79c0,1.16-.94,2.1-2.1,2.1h-11.65c-1.16,0-2.1-.94-2.1-2.1v-16.65c0-1.34,1.09-2.42,2.42-2.42s2.42,1.09,2.42,2.42v13.9h8.89c1.16,0,2.1.94,2.1,2.1v.66Z"/>
</svg>