<?xml version="1.0" encoding="UTF-8"?>
<svg id="Layer_1" data-name="Layer 1" xmlns="http://www.w3.org/2000/svg" xmlns:xlink="http://www.w3.org/1999/xlink" viewBox="0 0 92 92">
  <defs>
    <style>
      .cls-1 {
        fill: url(#linear-gradient-9);
        stroke: url(#linear-gradient-10);
      }

      .cls-1, .cls-2, .cls-3, .cls-4, .cls-5, .cls-6 {
        stroke-miterlimit: 10;
      }

      .cls-1, .cls-2, .cls-3, .cls-5, .cls-6 {
        stroke-width: 4.44px;
      }

      .cls-2 {
        fill: url(#linear-gradient-5);
        stroke: url(#linear-gradient-6);
      }

      .cls-3 {
        fill: url(#linear-gradient-7);
        stroke: url(#linear-gradient-8);
      }

      .cls-4 {
        fill: none;
        stroke: #23202a;
        stroke-width: 5.33px;
      }

      .cls-5 {
        fill: url(#linear-gradient);
        stroke: url(#linear-gradient-2);
      }

      .cls-6 {
        fill: url(#linear-gradient-3);
        stroke: url(#linear-gradient-4);
      }
    </style>
    <linearGradient id="linear-gradient" x1="35.29" y1="47.05" x2="57.33" y2="47.05" gradientTransform="translate(46.83 -18.97) rotate(45)" gradientUnits="userSpaceOnUse">
      <stop offset="0" stop-color="#cc202e"/>
      <stop offset="1" stop-color="#741213"/>
    </linearGradient>
    <linearGradient id="linear-gradient-2" x1="33.07" x2="59.55" xlink:href="#linear-gradient"/>
    <linearGradient id="linear-gradient-3" x1="7.7" y1="38.76" x2="29.75" y2="38.76" gradientTransform="translate(32.89 -1.89) rotate(45)" xlink:href="#linear-gradient"/>
    <linearGradient id="linear-gradient-4" x1="5.48" y1="38.76" x2="31.97" y2="38.76" gradientTransform="translate(32.89 -1.89) rotate(45)" xlink:href="#linear-gradient"/>
    <linearGradient id="linear-gradient-5" x1="63.3" y1="21.04" x2="85.34" y2="21.04" gradientTransform="matrix(1,0,0,1,0,0)" xlink:href="#linear-gradient"/>
    <linearGradient id="linear-gradient-6" x1="61.07" y1="21.04" x2="87.56" y2="21.04" gradientTransform="matrix(1,0,0,1,0,0)" xlink:href="#linear-gradient"/>
    <linearGradient id="linear-gradient-7" x1="63.3" y1="55.52" x2="85.34" y2="55.52" gradientTransform="matrix(1,0,0,1,0,0)" xlink:href="#linear-gradient"/>
    <linearGradient id="linear-gradient-8" x1="61.07" y1="55.52" x2="87.56" y2="55.52" gradientTransform="matrix(1,0,0,1,0,0)" xlink:href="#linear-gradient"/>
    <linearGradient id="linear-gradient-9" x1="6.66" y1="72.66" x2="28.7" y2="72.66" gradientTransform="matrix(1,0,0,1,0,0)" xlink:href="#linear-gradient"/>
    <linearGradient id="linear-gradient-10" x1="4.44" y1="72.66" x2="30.93" y2="72.66" gradientTransform="matrix(1,0,0,1,0,0)" xlink:href="#linear-gradient"/>
  </defs>
  <path class="cls-4" d="M46.31,58.61v6.59c0,5.5-4.46,9.96-9.96,9.96h-8.38"/>
  <path class="cls-4" d="M46.31,38.29v-9.58c0-4.81,3.9-8.72,8.72-8.72h8.32"/>
  <path class="cls-4" d="M27.97,35.31h19.8"/>
  <path class="cls-4" d="M44.93,59.55h19.8"/>
  <circle class="cls-5" cx="46.31" cy="47.05" r="11.02" transform="translate(-19.7 46.53) rotate(-45)"/>
  <circle class="cls-6" cx="18.73" cy="38.76" r="11.02" transform="translate(-21.93 24.59) rotate(-45)"/>
  <circle class="cls-2" cx="74.32" cy="21.04" r="11.02"/>
  <circle class="cls-3" cx="74.32" cy="55.52" r="11.02"/>
  <circle class="cls-1" cx="17.68" cy="72.66" r="11.02"/>
</svg>