<?xml version="1.0" encoding="UTF-8"?>
<svg id="Layer_1" data-name="Layer 1" xmlns="http://www.w3.org/2000/svg" xmlns:xlink="http://www.w3.org/1999/xlink" viewBox="0 0 128 128">
  <defs>
    <style>
      .cls-1 {
        fill: url(#linear-gradient);
      }

      .cls-1, .cls-2 {
        stroke-width: 0px;
      }

      .cls-2 {
        fill: #23202a;
      }
    </style>
    <linearGradient id="linear-gradient" x1="30.01" y1="64" x2="97.99" y2="64" gradientUnits="userSpaceOnUse">
      <stop offset="0" stop-color="#cc202e"/>
      <stop offset="1" stop-color="#741213"/>
    </linearGradient>
  </defs>
  <g>
    <path class="cls-2" d="M11.05,37.54h11.95v22.08h23.96v-22.08h11.94v52.92h-11.94v-20.87h-23.96v20.87h-11.95v-52.92Z"/>
    <path class="cls-2" d="M103.56,40.9c4.23,2.24,7.52,5.37,9.87,9.37,2.34,4.01,3.52,8.58,3.52,13.72s-1.2,9.72-3.59,13.72c-2.39,4.01-5.73,7.13-10.02,9.37-4.28,2.24-9.17,3.36-14.67,3.36h-22v-52.92h22.45c5.39,0,10.21,1.12,14.44,3.36ZM97.33,78.33c2.34-1.39,4.17-3.31,5.48-5.78,1.31-2.47,1.97-5.29,1.97-8.47s-.69-6.02-2.08-8.54c-1.39-2.52-3.28-4.47-5.67-5.86-2.39-1.39-5.1-2.08-8.13-2.08h-10.28v32.81h10.81c2.92,0,5.56-.69,7.9-2.08Z"/>
  </g>
  <path class="cls-1" d="M70.3,63.97l26.27-26.27c1.71-1.71,1.97-4.52.33-6.3-1.71-1.86-4.6-1.91-6.37-.14l-26.47,26.47s-.05.02-.06,0l-26.26-26.27c-1.71-1.71-4.52-1.97-6.3-.33-1.86,1.71-1.91,4.6-.14,6.37l26.47,26.47s.02.05,0,.06l-26.24,26.24c-1.84,1.84-1.96,4.99.01,6.69.82.71,1.85,1.06,2.87,1.06,1.13,0,2.26-.43,3.12-1.29l26.47-26.47s.05-.02.06,0l26.47,26.47c.86.86,1.99,1.29,3.12,1.29,1.02,0,2.05-.36,2.87-1.06,1.98-1.7,1.86-4.85.02-6.69l-26.24-26.24s-.02-.05,0-.06Z"/>
</svg>