<?xml version="1.0" encoding="UTF-8"?>
<svg id="Layer_1" xmlns="http://www.w3.org/2000/svg" xmlns:xlink="http://www.w3.org/1999/xlink" viewBox="0 0 128 128">
  <defs>
    <style>
      .cls-1 {
        fill: #23202a;
      }

      .cls-2 {
        fill: url(#linear-gradient);
      }
    </style>
    <linearGradient id="linear-gradient" x1="36.27" y1="55.17" x2="109.39" y2="55.17" gradientUnits="userSpaceOnUse">
      <stop offset="0" stop-color="#cc202e"/>
      <stop offset="1" stop-color="#741213"/>
    </linearGradient>
  </defs>
  <path class="cls-1" d="M79.92,84.44c-4.81,0-8.72,3.91-8.72,8.73s3.91,8.73,8.72,8.73,8.73-3.91,8.73-8.73-3.91-8.73-8.73-8.73ZM79.92,96.08c-1.6,0-2.91-1.3-2.91-2.91s1.3-2.91,2.91-2.91,2.91,1.3,2.91,2.91-1.3,2.91-2.91,2.91Z"/>
  <path class="cls-1" d="M72.09,60.01l-42.31,42.31-4.11-4.11,47.27-47.27-4.24-3.98-49.19,49.19c-1.14,1.14-1.14,2.98,0,4.11l8.23,8.23c.57.57,1.31.85,2.06.85s1.49-.28,2.06-.85l44.36-44.36c1.14-1.14,1.14-2.98,0-4.11-1.14-1.14-2.98-1.14-4.11,0Z"/>
  <path class="cls-2" d="M95.21,45.13l4.45-4.45c1.14-1.14,1.14-2.98,0-4.11l-8.23-8.23c-1.14-1.14-2.98-1.14-4.11,0l-4.45,4.45c-14.76-11.88-31.93-16.95-44.62-12.7-1.13.38-1.91,1.4-1.98,2.59-.07,1.19.59,2.3,1.67,2.8,9.4,4.39,20.28,12.07,30.7,21.53l4.24,3.98c.14.14.29.28.43.42.55.53,1.11,1.06,1.66,1.6,12.21,12.21,22.25,25.71,27.53,37.03.48,1.03,1.51,1.68,2.64,1.68.05,0,.11,0,.17,0,1.19-.07,2.21-.85,2.59-1.98,4.24-12.69-.83-29.86-12.7-44.61ZM89.38,34.51l4.11,4.11-2.11,2.11c-.66-.71-1.31-1.42-2-2.11-.69-.69-1.4-1.35-2.11-2l2.11-2.11ZM79.09,48.91c-10.11-10.11-20.77-18.57-30.73-24.47,11.51.21,25.58,6.98,36.9,18.3,11.32,11.32,18.09,25.39,18.3,36.9-5.9-9.97-14.36-20.62-24.47-30.73Z"/>
</svg>