<?xml version="1.0" encoding="UTF-8"?>
<svg id="Layer_1" data-name="Layer 1" xmlns="http://www.w3.org/2000/svg" xmlns:xlink="http://www.w3.org/1999/xlink" viewBox="0 0 92 92">
  <defs>
    <style>
      .cls-1 {
        fill: url(#linear-gradient);
        stroke-width: 0px;
      }

      .cls-2 {
        stroke-width: 5.33px;
      }

      .cls-2, .cls-3 {
        fill: none;
        stroke: #23202a;
        stroke-miterlimit: 10;
      }

      .cls-3 {
        stroke-width: 4.44px;
      }
    </style>
    <linearGradient id="linear-gradient" x1="19.29" y1="46.29" x2="72.36" y2="46.29" gradientUnits="userSpaceOnUse">
      <stop offset="0" stop-color="#cc202e"/>
      <stop offset="1" stop-color="#741213"/>
    </linearGradient>
  </defs>
  <g>
    <path class="cls-2" d="M46.14,58.05v6.59c0,5.5-4.46,9.96-9.96,9.96h-8.38"/>
    <path class="cls-2" d="M46.14,37.74v-9.58c0-4.81,3.9-8.72,8.72-8.72h8.32"/>
    <circle class="cls-3" cx="18.55" cy="38.21" r="11.02" transform="translate(-21.58 24.31) rotate(-45)"/>
    <circle class="cls-3" cx="74.14" cy="20.48" r="11.02"/>
    <circle class="cls-3" cx="74.14" cy="54.96" r="11.02"/>
    <circle class="cls-3" cx="17.51" cy="72.1" r="11.02"/>
    <path class="cls-2" d="M27.79,34.75h19.8"/>
    <path class="cls-2" d="M44.75,58.99h19.8"/>
    <circle class="cls-3" cx="46.14" cy="46.49" r="11.02" transform="translate(-19.36 46.24) rotate(-45)"/>
  </g>
  <path class="cls-1" d="M50.74,46.26l20.5-20.5c1.33-1.33,1.53-3.53.26-4.92-1.33-1.45-3.59-1.49-4.97-.11l-20.66,20.66s-.04.01-.05,0l-20.5-20.5c-1.33-1.33-3.53-1.54-4.92-.26-1.45,1.34-1.49,3.59-.11,4.97l20.66,20.66s.01.04,0,.05l-20.48,20.48c-1.44,1.44-1.53,3.9,0,5.22.64.55,1.44.83,2.24.83.88,0,1.76-.34,2.43-1.01l20.66-20.66s.04-.01.05,0l20.66,20.66c.67.67,1.55,1.01,2.43,1.01.8,0,1.6-.28,2.24-.83,1.54-1.33,1.45-3.78.01-5.22l-20.48-20.48s-.01-.04,0-.05Z"/>
</svg>