<?xml version="1.0" encoding="UTF-8"?>
<svg xmlns="http://www.w3.org/2000/svg" version="1.1" xmlns:cc="http://creativecommons.org/ns#" xmlns:dc="http://purl.org/dc/elements/1.1/" xmlns:rdf="http://www.w3.org/1999/02/22-rdf-syntax-ns#" xmlns:svg="http://www.w3.org/2000/svg" xmlns:xlink="http://www.w3.org/1999/xlink" viewBox="0 0 609.4 609.4">
  <defs>
    <style>
      .cls-1 {
        fill: #23202a;
      }

      .cls-2 {
        fill: url(#linear-gradient);
      }
    </style>
    <linearGradient id="linear-gradient" x1="67.3" y1="332.6" x2="354.3" y2="332.6" gradientUnits="userSpaceOnUse">
      <stop offset="0" stop-color="#cc202e"/>
      <stop offset="1" stop-color="#741213"/>
    </linearGradient>
  </defs>
  <!-- Generator: Adobe Illustrator 28.7.0, SVG Export Plug-In . SVG Version: 1.2.0 Build 17)  -->
  <g>
    <g id="Ebene_1">
      <path class="cls-2" d="M352.2,453.1c4.2,7.6,1.9,17.2-5.4,22s-14.2,8.3-22.3,11.4c-13.2,5.1-26.1,7.6-38.7,7.6s-33-4.9-47.2-14.6c-12.1-8.3-22.4-19.5-31-33.5s-7.8-7.7-13.2-8.1c-22.2-1.6-42.4-7.6-60.7-18.1-20.7-11.8-37-27.9-48.8-48.1-11.8-20.2-17.8-42.7-17.8-67.3s6.1-47.5,18.3-67.9c12.2-20.3,28.9-36.3,49.9-47.9,21.1-11.6,44.7-17.4,70.8-17.4s49.4,5.8,70.7,17.4c21.2,11.6,37.9,27.6,50.1,47.9,12.2,20.3,18.3,43,18.3,67.9s-8,54.2-23.9,76.8c-10.4,14.7-22.9,26.7-37.8,35.9-14.1,8.8-8.3,30.7,8.4,30.9.1,0,.2,0,.4,0,6.2,0,13.2-1.8,21.1-5.4,3.3-1.5,6.7-3.2,10.1-5.2,8.1-4.8,18.6-2,23.2,6.2l5.3,9.6ZM138.1,346.1c7.3,12.6,17,22.6,29.2,30,12.2,7.4,25.5,11.1,39.8,11.1s27.4-3.6,39.4-10.9c12-7.3,21.5-17.3,28.5-30,7-12.7,10.5-26.7,10.5-42s-3.5-28.9-10.5-41.4c-7-12.6-16.5-22.5-28.5-29.8-12-7.3-25.1-10.9-39.4-10.9s-27.6,3.6-39.9,10.9c-12.3,7.3-22.1,17.2-29.2,29.8-7.2,12.6-10.7,26.4-10.7,41.4s3.6,29.2,10.9,41.8Z"/>
      <path class="cls-1" d="M366.9,192.1h183c9.2,0,16.7,7.5,16.7,16.7v16.2c0,9.2-7.5,16.7-16.7,16.7h-45.8c-9.2,0-16.7,7.5-16.7,16.7v176c0,9.2-7.5,16.7-16.7,16.7h-25.1c-9.2,0-16.7-7.5-16.7-16.7v-176c0-9.2-7.5-16.7-16.7-16.7h-45.4c-9.2,0-16.7-7.5-16.7-16.7v-16.2c0-9.2,7.5-16.7,16.7-16.7Z"/>
    </g>
  </g>
</svg>