<?xml version="1.0" encoding="UTF-8"?>
<svg id="Layer_1" xmlns="http://www.w3.org/2000/svg" xmlns:xlink="http://www.w3.org/1999/xlink" viewBox="0 0 128 128">
  <defs>
    <style>
      .cls-1 {
        fill: url(#linear-gradient-2);
      }

      .cls-2 {
        fill: #23202a;
      }

      .cls-3 {
        fill: url(#linear-gradient);
      }
    </style>
    <linearGradient id="linear-gradient" x1="36.72" y1="52.17" x2="109.52" y2="52.17" gradientUnits="userSpaceOnUse">
      <stop offset="0" stop-color="#cc202e"/>
      <stop offset="1" stop-color="#741213"/>
    </linearGradient>
    <linearGradient id="linear-gradient-2" x1="20.54" y1="84.47" x2="93.34" y2="84.47" xlink:href="#linear-gradient"/>
  </defs>
  <g id="trade_transaction_payment_trading">
    <path class="cls-3" d="M108.34,57.37l-16.18-16.18c-1.61-1.55-4.17-1.51-5.72.1-1.51,1.57-1.51,4.05,0,5.62l9.27,9.27h-54.95c-2.23,0-4.04,1.81-4.04,4.04s1.81,4.04,4.04,4.04h64.71c2.23,0,4.04-1.81,4.04-4.05,0-1.07-.43-2.1-1.18-2.86h0Z"/>
    <path class="cls-1" d="M89.3,72.36H24.59c-2.23,0-4.04,1.81-4.04,4.05,0,1.07.43,2.1,1.18,2.86l16.18,16.18c1.61,1.55,4.17,1.51,5.72-.1,1.51-1.57,1.51-4.05,0-5.62l-9.27-9.27h54.95c2.23,0,4.04-1.81,4.04-4.04s-1.81-4.04-4.04-4.04h0Z"/>
  </g>
  <path class="cls-2" d="M60.48,84.14c-1.36,0-2.46-1.1-2.46-2.46,0-3.21.46-5.99,1.36-8.32.67-1.76,1.75-3.53,3.23-5.32,1.09-1.3,3.05-3.21,5.89-5.7,2.83-2.5,4.67-4.49,5.53-5.98.85-1.49,1.27-3.11,1.27-4.87,0-3.19-1.24-5.98-3.73-8.39s-5.53-3.61-9.14-3.61-6.4,1.09-8.73,3.28c-1.7,1.59-2.98,3.85-3.83,6.75-.58,2-2.53,3.27-4.59,3.03-2.62-.31-4.34-2.9-3.59-5.43,1.15-3.89,3.07-7.02,5.76-9.4,3.74-3.31,8.69-4.97,14.85-4.97,6.52,0,11.71,1.77,15.6,5.32s5.82,7.84,5.82,12.87c0,2.91-.68,5.6-2.05,8.05-1.36,2.46-4.03,5.44-8,8.96-2.67,2.36-4.41,4.11-5.23,5.23s-1.43,2.41-1.82,3.86c-.29,1.08-.49,2.67-.6,4.75-.07,1.31-1.16,2.34-2.47,2.34h-3.07ZM57.57,95.89c0-2.57,2.09-4.66,4.66-4.66s4.66,2.09,4.66,4.66-2.09,4.66-4.66,4.66-4.66-2.09-4.66-4.66h0Z"/>
</svg>