<?xml version="1.0" encoding="UTF-8"?>
<svg id="Layer_1" xmlns="http://www.w3.org/2000/svg" xmlns:xlink="http://www.w3.org/1999/xlink" viewBox="0 0 128 128">
  <defs>
    <style>
      .cls-1 {
        fill: #23202a;
      }

      .cls-2 {
        fill: url(#linear-gradient);
      }
    </style>
    <linearGradient id="linear-gradient" x1="15.33" y1="64" x2="86.12" y2="64" gradientUnits="userSpaceOnUse">
      <stop offset="0" stop-color="#cc202e"/>
      <stop offset="1" stop-color="#741213"/>
    </linearGradient>
  </defs>
  <path class="cls-2" d="M85.59,66.06c.07-.12.14-.24.19-.37.07-.16.1-.32.15-.49.03-.11.08-.22.1-.34.06-.29.09-.58.09-.87s-.03-.58-.09-.87c-.02-.12-.07-.23-.1-.34-.05-.16-.09-.33-.15-.49-.05-.13-.13-.25-.19-.37-.07-.13-.13-.27-.21-.39-.16-.24-.34-.47-.55-.67l-22.12-22.12c-1.73-1.73-4.53-1.73-6.26,0-1.73,1.73-1.73,4.53,0,6.26l14.57,14.57H19.76c-2.44,0-4.42,1.98-4.42,4.42s1.98,4.42,4.42,4.42h51.26l-14.57,14.57c-1.73,1.73-1.73,4.53,0,6.26,1.73,1.73,4.53,1.73,6.26,0l22.12-22.12c.2-.2.39-.43.55-.67.08-.13.14-.26.21-.39Z"/>
  <path class="cls-1" d="M94.97,15.33h-22.12c-2.44,0-4.42,1.98-4.42,4.42s1.98,4.42,4.42,4.42h22.12c4.88,0,8.85,3.97,8.85,8.85v61.94c0,4.88-3.97,8.85-8.85,8.85h-22.12c-2.44,0-4.42,1.98-4.42,4.42s1.98,4.42,4.42,4.42h22.12c9.76,0,17.7-7.94,17.7-17.7v-61.94c0-9.76-7.94-17.7-17.7-17.7Z"/>
</svg>