<?xml version="1.0" encoding="UTF-8"?>
<svg id="Layer_1" xmlns="http://www.w3.org/2000/svg" xmlns:xlink="http://www.w3.org/1999/xlink" viewBox="0 0 128 128">
  <defs>
    <style>
      .cls-1 {
        fill: url(#linear-gradient-2);
      }

      .cls-2 {
        fill: #23202a;
      }

      .cls-3 {
        fill: url(#linear-gradient);
      }
    </style>
    <linearGradient id="linear-gradient" x1="40.4" y1="61.77" x2="97.65" y2="61.77" gradientUnits="userSpaceOnUse">
      <stop offset="0" stop-color="#cc202e"/>
      <stop offset="1" stop-color="#741213"/>
    </linearGradient>
    <linearGradient id="linear-gradient-2" x1="150.85" y1="10.96" x2="208.1" y2="10.96" gradientTransform="translate(218.42 84.87) rotate(-180)" xlink:href="#linear-gradient"/>
  </defs>
  <path class="cls-3" d="M97.22,63.44c.05-.1.11-.19.16-.3.05-.13.08-.26.12-.39.03-.09.06-.18.08-.28.05-.23.07-.47.07-.7s-.02-.47-.07-.7c-.02-.1-.06-.18-.08-.28-.04-.13-.07-.27-.12-.39-.04-.1-.1-.2-.16-.3-.06-.11-.1-.22-.17-.32-.13-.2-.28-.38-.44-.54l-17.89-17.89c-1.4-1.4-3.66-1.4-5.06,0-1.4,1.4-1.4,3.66,0,5.06l11.78,11.78h-41.46c-1.98,0-3.58,1.6-3.58,3.58s1.6,3.58,3.58,3.58h41.46l-11.78,11.78c-1.4,1.4-1.4,3.66,0,5.06,1.4,1.4,3.66,1.4,5.06,0l17.89-17.89c.17-.17.31-.35.44-.54.07-.1.12-.21.17-.32Z"/>
  <path class="cls-2" d="M99.98,15.33h-22.12c-2.44,0-4.42,1.98-4.42,4.42s1.98,4.42,4.42,4.42h22.12c4.88,0,8.85,3.97,8.85,8.85v61.94c0,4.88-3.97,8.85-8.85,8.85h-22.12c-2.44,0-4.42,1.98-4.42,4.42s1.98,4.42,4.42,4.42h22.12c9.76,0,17.7-7.94,17.7-17.7v-61.94c0-9.76-7.94-17.7-17.7-17.7Z"/>
  <path class="cls-1" d="M10.75,72.24c-.05.1-.11.19-.16.3-.05.13-.08.26-.12.39-.03.09-.06.18-.08.28-.05.23-.07.47-.07.7s.02.47.07.7c.02.1.06.18.08.28.04.13.07.27.12.39.04.1.1.2.16.3.06.11.1.22.17.32.13.2.28.38.44.54l17.89,17.89c1.4,1.4,3.66,1.4,5.06,0,1.4-1.4,1.4-3.66,0-5.06l-11.78-11.78h41.46c1.98,0,3.58-1.6,3.58-3.58s-1.6-3.58-3.58-3.58H22.53l11.78-11.78c1.4-1.4,1.4-3.66,0-5.06-1.4-1.4-3.66-1.4-5.06,0l-17.89,17.89c-.17.17-.31.35-.44.54-.07.1-.12.21-.17.32Z"/>
</svg>